<svg xmlns="http://www.w3.org/2000/svg" width="2500" height="2461" preserveAspectRatio="xMidYMid" viewBox="0 0 256 252"><defs><linearGradient id="a" x1=".041%" x2="100.078%" y1="50.091%" y2="50.091%"><stop offset="0%" stop-color="#4284F0"/><stop offset="100%" stop-color="#4487F4"/></linearGradient><linearGradient id="b" x1="28.448%" x2="55.474%" y1="81.561%" y2="42.237%"><stop offset="0%" stop-color="#F5B406"/><stop offset="100%" stop-color="#F4B913"/></linearGradient></defs><path fill="#437DE6" d="M254.2 154.4L209.4 252H102.3l58.6-126h75c14.6 0 24.3 15.1 18.3 28.4z"/><path fill="#196CEA" d="M235.9 127.8c6.3 0 12 3.1 15.4 8.4 3.4 5.3 3.8 11.8 1.2 17.5l-44.2 96.6H107.2l56.9-122.5h71.8zm0-1.8H163l-58.6 126h105l44.7-97.6c6.1-13.3-3.6-28.4-18.2-28.4z"/><path fill="url(#a)" d="M62.1 1.8s56.2 61 69.4 67.3L149.8 29c6.4-12.7-1.8-27.5-17.1-27.3l-70.6.1z" transform="translate(102 126)"/><path fill="url(#b)" d="M112.9 10.9L0 252h104.4L165 121.7 221.6 0H130c-7.3 0-14 4.2-17.1 10.9z"/><path fill="#F3AA00" d="M218.8 1.8L163.4 121l-60.1 129.3H2.8L114.5 11.6c2.8-6 8.9-9.9 15.5-9.9h88.8v.1zm2.8-1.8H130c-7.3 0-14 4.2-17.1 10.9L0 252h104.4L165 121.7 221.6 0z"/></svg>