<svg xmlns="http://www.w3.org/2000/svg" enable-background="new 0 0 100 100" viewBox="0 0 100 100"><path fill="#9cbefd" d="M2.239,80.99c10.28,0.312,19.581-2.186,28.2-8.675c-8.949-0.983-14.992-5.259-18.287-13.456
			c2.817-0.124,5.426-0.239,8.036-0.354C10.893,55.011,5.696,48.71,5.011,38.77c2.853,0.795,5.53,1.541,8.208,2.287
			C5.005,33.398,3.149,24.739,7.727,14.27c10.864,12.652,24.288,19.635,40.827,20.842c0-2.455-0.253-4.847,0.046-7.168
			c0.989-7.676,5.28-13.03,12.393-15.826c7.235-2.844,14.048-1.574,20.027,3.399c1.332,1.108,2.441,1.552,4.075,0.911
			c3.236-1.27,6.516-2.428,9.884-3.671c-1.316,4.095-4.034,7.247-7.443,10.194c1.063-0.166,2.138-0.282,3.187-0.513
			c1.135-0.25,2.257-0.575,3.365-0.927c1.095-0.347,2.165-0.769,3.247-1.159c0.142,0.161,0.284,0.322,0.427,0.483
			c-2.603,2.643-5.061,5.455-7.87,7.858c-1.456,1.246-1.823,2.431-1.897,4.215c-1.956,47.375-47.598,69.297-84.751,48.751
			C2.893,81.464,2.573,81.214,2.239,80.99z"/><path d="M70.838,30.42c0.638,0,1.156-0.518,1.156-1.156c0-0.638-0.518-1.156-1.156-1.156c-0.85,0-1.541-0.685-1.541-1.526
			c0-0.85,0.691-1.541,1.541-1.541c0.638,0,1.156-0.518,1.156-1.156s-0.518-1.156-1.156-1.156c-2.124,0-3.852,1.727-3.852,3.852
			C66.986,28.699,68.713,30.42,70.838,30.42z"/></svg>