<svg xmlns="http://www.w3.org/2000/svg" fill-rule="evenodd" stroke-linejoin="round" stroke-miterlimit="2" clip-rule="evenodd" viewBox="0 0 32 32"><path fill="#d5242e" d="M28 3a3 3 0 0 0-3-3H3a3 3 0 0 0-3 3v13a3 3 0 0 0 3 3h22a3 3 0 0 0 3-3V3Z"/><path fill="#f2f2f2" d="M18.49 10.372a1.001 1.001 0 0 0 0-1.744l-8-4.5A.999.999 0 0 0 9 5v9a.999.999 0 0 0 1.49.872l8-4.5Z"/><path fill="#279f62" d="M28.525 19.101c.215-.215.32-.516.287-.818l-.707-6.364a1 1 0 0 0-.884-.883l-6.364-.708a1 1 0 0 0-.817.287L8.019 22.636a3 3 0 0 0 0 4.243l4.243 4.242a2.998 2.998 0 0 0 4.242 0l12.021-12.02Z"/><path fill="#279f62" d="m30.293 7.433-7.778 7.779a1 1 0 0 0 1.414 1.414l7.778-7.778a1 1 0 0 0-1.414-1.415Z"/><path fill-opacity=".1" d="m30.293 7.433-7.778 7.779a1 1 0 0 0 1.414 1.414l7.778-7.778a1 1 0 0 0-1.414-1.415Z"/></svg>